<svg width="35" height="35" viewBox="0 0 35 35" fill="none" xmlns="http://www.w3.org/2000/svg">
<path d="M0.559273 17.6938C1.16585 18.3003 1.77243 18.4912 2.96931 18.4912L16.0936 18.5607C16.2149 18.5607 16.3184 18.5607 16.371 18.6295C16.4227 18.6813 16.4398 18.7856 16.4398 18.8899L16.4915 32.0315C16.5093 33.2276 16.7001 33.8342 17.3067 34.4407C18.1219 35.2729 19.2663 35.1346 20.1155 34.3024C20.5667 33.8512 20.9306 33.1063 21.2598 32.4125L34.5231 3.80726C35.2163 2.35152 35.1297 1.27598 34.4196 0.565123C33.725 -0.127982 32.6502 -0.214528 31.1944 0.478577L2.58761 13.7415C1.89374 14.0707 1.14884 14.4346 0.697602 14.8858C-0.134592 15.735 -0.272921 16.8623 0.559273 17.6945" fill="white"/>
</svg>
