<svg width="36" height="36" viewBox="0 0 36 36" fill="none" xmlns="http://www.w3.org/2000/svg">
<path fill-rule="evenodd" clip-rule="evenodd" d="M10.3333 8.41667C10.3333 6.38334 11.1411 4.43329 12.5788 2.99551C14.0166 1.55774 15.9667 0.75 18 0.75C20.0333 0.75 21.9834 1.55774 23.4212 2.99551C24.8589 4.43329 25.6667 6.38334 25.6667 8.41667C25.6667 10.45 24.8589 12.4 23.4212 13.8378C21.9834 15.2756 20.0333 16.0833 18 16.0833C15.9667 16.0833 14.0166 15.2756 12.5788 13.8378C11.1411 12.4 10.3333 10.45 10.3333 8.41667ZM10.3333 19.9167C7.79168 19.9167 5.35412 20.9263 3.55689 22.7236C1.75967 24.5208 0.75 26.9583 0.75 29.5C0.75 31.025 1.3558 32.4875 2.43414 33.5659C3.51247 34.6442 4.97501 35.25 6.5 35.25H29.5C31.025 35.25 32.4875 34.6442 33.5659 33.5659C34.6442 32.4875 35.25 31.025 35.25 29.5C35.25 26.9583 34.2403 24.5208 32.4431 22.7236C30.6459 20.9263 28.2083 19.9167 25.6667 19.9167H10.3333Z" fill="white"/>
</svg>
