<svg xmlns="http://www.w3.org/2000/svg" xmlns:xlink="http://www.w3.org/1999/xlink" width="1920" zoomAndPan="magnify" viewBox="0 0 1440 809.999993" height="1080" preserveAspectRatio="xMidYMid meet" version="1.0"><defs><clipPath id="1e0b561234"><path d="M 526.480469 144 L 1016.230469 144 L 1016.230469 704.972656 L 526.480469 704.972656 Z M 526.480469 144 " clip-rule="nonzero"/></clipPath><clipPath id="6476bfb977"><path d="M 292.875 45 L 782.625 45 L 782.625 605.941406 L 292.875 605.941406 Z M 292.875 45 " clip-rule="nonzero"/></clipPath></defs><g clip-path="url(#1e0b561234)"><path fill="#1b73ba" d="M 567.492188 646.210938 L 526.480469 144.902344 L 1016.230469 145.910156 L 972.867188 646.210938 L 773.207031 704.039062 Z M 567.492188 646.210938 " fill-opacity="1" fill-rule="nonzero"/></g><path fill="#1c88c7" d="M 773.207031 655.625 L 773.207031 192.644531 L 974.886719 193.316406 L 938.921875 607.546875 Z M 773.207031 655.625 " fill-opacity="1" fill-rule="nonzero"/><path fill="#ffffff" d="M 924.800781 251.824219 L 614.550781 251.824219 L 622.953125 312.339844 L 770.179688 312.339844 L 625.308594 374.542969 L 633.710938 433.042969 L 847.15625 433.042969 L 839.425781 514.746094 L 767.15625 528.867188 L 701.609375 512.058594 L 696.566406 465.65625 L 636.398438 465.65625 L 644.464844 562.15625 L 773.539062 598.132812 L 897.242188 558.792969 L 913.039062 370.167969 L 782.277344 370.167969 L 924.796875 310.996094 Z M 924.800781 251.824219 " fill-opacity="1" fill-rule="nonzero"/><g clip-path="url(#6476bfb977)"><path fill="#e34f26" d="M 333.882812 547.1875 L 292.875 45.871094 L 782.625 46.878906 L 739.261719 547.1875 L 539.597656 605.015625 Z M 333.882812 547.1875 " fill-opacity="1" fill-rule="nonzero"/></g><path fill="#ef652a" d="M 539.597656 556.601562 L 539.597656 93.613281 L 741.28125 94.285156 L 705.316406 508.515625 Z M 539.597656 556.601562 " fill-opacity="1" fill-rule="nonzero"/><path fill="#ffffff" d="M 685.820312 209.277344 L 691.53125 148.082031 L 381.28125 148.082031 L 398.421875 335.699219 L 612.539062 335.699219 L 604.144531 415.71875 L 535.570312 434.207031 L 465.992188 414.035156 L 462.292969 366.292969 L 400.773438 366.292969 L 409.179688 463.800781 L 535.566406 499.101562 L 662.960938 463.800781 L 680.101562 273.496094 L 455.230469 273.496094 L 448.84375 209.277344 Z M 685.820312 209.277344 " fill-opacity="1" fill-rule="nonzero"/></svg>