<svg width="96" height="55" viewBox="0 0 96 55" fill="none" xmlns="http://www.w3.org/2000/svg">
<rect width="96" height="53.1687" fill="white"/>
<path d="M11.9405 40.2546C11.3219 40.2546 10.7885 40.0413 10.3405 39.6146C9.91388 39.1666 9.70055 38.6333 9.70055 38.0146C9.70055 37.396 9.91388 36.8626 10.3405 36.4146C10.7885 35.9666 11.3219 35.7426 11.9405 35.7426C12.5592 35.7426 13.0925 35.9666 13.5405 36.4146C13.9885 36.8626 14.2125 37.396 14.2125 38.0146C14.2125 38.6333 13.9885 39.1666 13.5405 39.6146C13.0925 40.0413 12.5592 40.2546 11.9405 40.2546ZM20.658 20.8306C20.0607 20.8306 19.5487 20.6173 19.122 20.1906C18.7167 19.764 18.514 19.2626 18.514 18.6866C18.514 18.0893 18.7167 17.588 19.122 17.1826C19.5487 16.756 20.0607 16.5426 20.658 16.5426C21.234 16.5426 21.7354 16.756 22.162 17.1826C22.5887 17.588 22.802 18.0893 22.802 18.6866C22.802 19.2626 22.5887 19.764 22.162 20.1906C21.7354 20.6173 21.234 20.8306 20.658 20.8306ZM17.106 46.6866C16.0607 46.6866 14.9514 46.3773 13.778 45.7586L15.218 42.7826C15.602 42.9746 15.954 43.1133 16.274 43.1986C16.594 43.3053 16.8607 43.3586 17.074 43.3586C18.2687 43.3586 18.866 42.5906 18.866 41.0546V23.8066H22.418V41.2466C22.418 42.996 21.9594 44.34 21.042 45.2786C20.146 46.2173 18.834 46.6866 17.106 46.6866ZM26.9053 39.8066V23.8066H30.4573V39.8066H26.9053ZM28.6973 20.7666C28.1213 20.7666 27.62 20.564 27.1933 20.1586C26.788 19.732 26.5853 19.2306 26.5853 18.6546C26.5853 18.0786 26.788 17.588 27.1933 17.1826C27.62 16.7773 28.1213 16.5746 28.6973 16.5746C29.2733 16.5746 29.764 16.7773 30.1693 17.1826C30.596 17.588 30.8093 18.0786 30.8093 18.6546C30.8093 19.2306 30.596 19.732 30.1693 20.1586C29.764 20.564 29.2733 20.7666 28.6973 20.7666ZM41.8173 40.1906C40.26 40.1906 38.8733 39.8386 37.6573 39.1346C36.4626 38.4093 35.5133 37.4173 34.8093 36.1586C34.1266 34.9 33.7853 33.4493 33.7853 31.8066C33.7853 30.164 34.1373 28.7133 34.8413 27.4546C35.5453 26.196 36.5053 25.2146 37.7213 24.5106C38.9586 23.7853 40.3666 23.4226 41.9453 23.4226C43.3746 23.4226 44.6653 23.796 45.8173 24.5426C46.9693 25.268 47.876 26.324 48.5373 27.7106C49.22 29.0973 49.5613 30.7506 49.5613 32.6706H36.9853L37.4653 32.2226C37.4653 33.204 37.6786 34.0573 38.1053 34.7826C38.532 35.4866 39.0973 36.0306 39.8013 36.4146C40.5053 36.7986 41.284 36.9906 42.1373 36.9906C43.1186 36.9906 43.9293 36.7773 44.5693 36.3506C45.2093 35.9026 45.7106 35.3266 46.0733 34.6226L49.2413 35.9666C48.7933 36.82 48.2173 37.5666 47.5133 38.2066C46.8306 38.8466 46.0093 39.3373 45.0493 39.6786C44.1106 40.02 43.0333 40.1906 41.8173 40.1906ZM37.6893 30.3666L37.1773 29.9186H46.2013L45.7213 30.3666C45.7213 29.492 45.5293 28.7773 45.1453 28.2226C44.7613 27.6466 44.2706 27.22 43.6733 26.9426C43.0973 26.644 42.4893 26.4946 41.8493 26.4946C41.2093 26.4946 40.5693 26.644 39.9293 26.9426C39.2893 27.22 38.756 27.6466 38.3293 28.2226C37.9026 28.7773 37.6893 29.492 37.6893 30.3666Z" fill="black"/>
</svg>
